<svg xmlns="http://www.w3.org/2000/svg" viewBox="0 0 26.27 27.1875" x="0px" y="0px"><defs><style>.cls-1{fill:#fff;}</style></defs><title>Asset 1</title><g data-name="Layer 2"><g data-name="Layer 1"><path class="cls-1" d="M1.5,3H24.77a1.5,1.5,0,0,0,0-3H1.5a1.5,1.5,0,0,0,0,3Zm4.25,7.5A2.25,2.25,0,1,0,3.5,12.75,2.25,2.25,0,0,0,5.75,10.5Zm19,1.5a1.5,1.5,0,1,0,0-3H11.5a1.5,1.5,0,0,0,0,3Zm0,9a1.5,1.5,0,1,0,0-3H11.5a1.5,1.5,0,0,0,0,3Zm-19-1.5A2.25,2.25,0,1,0,3.5,21.75,2.25,2.25,0,0,0,5.75,19.5Z"/></g></g><text x="0" y="36.75" fill="#000000" font-size="5px" font-weight="bold" font-family="'Helvetica Neue', Helvetica, Arial-Unicode, Arial, Sans-serif">Created by James Kocsis</text><text x="0" y="41.75" fill="#000000" font-size="5px" font-weight="bold"  font-family="'Helvetica Neue', Helvetica, Arial-Unicode, Arial, Sans-serif">from the Noun Project</text></svg>